<?xml version="1.0" encoding="utf-8"?>
<!-- Generator: Adobe Illustrator 15.1.0, SVG Export Plug-In . SVG Version: 6.00 Build 0)  -->
<!DOCTYPE svg PUBLIC "-//W3C//DTD SVG 1.1//EN" "http://www.w3.org/Graphics/SVG/1.1/DTD/svg11.dtd">
<svg version="1.1" id="Capa_1" xmlns="http://www.w3.org/2000/svg" xmlns:xlink="http://www.w3.org/1999/xlink" x="0px" y="0px"
	 width="400px" height="150px" viewBox="0 0 400 150" enable-background="new 0 0 400 150" xml:space="preserve">
<g>
	<path fill="#FFFFFF" d="M19.466,75.126V75c0-13.177,10.276-23.012,23.453-23.012c9.709,0,16.266,4.729,19.985,11.474l-12.168,7.125
		c-1.639-3.152-3.972-5.359-8.007-5.359c-4.98,0-8.259,4.351-8.259,9.646V75c0,5.737,3.404,9.771,8.259,9.771
		c4.161,0,6.494-2.269,8.322-5.547l12.167,6.871c-3.72,6.557-9.898,11.916-20.868,11.916C30.121,98.012,19.466,88.807,19.466,75.126
		z"/>
	<path fill="#FFFFFF" d="M80.684,52.618h14.627l18.599,44.447H97.895l-2.333-5.926H80.117l-2.27,5.926H62.085L80.684,52.618z
		 M91.906,80.674l-4.035-10.718l-4.035,10.718H91.906z"/>
	<path fill="#FFFFFF" d="M115.737,52.934h19.859c11.727,0,19.733,5.233,19.733,15.699v0.125c0,10.655-8.133,16.33-20.048,16.33
		h-4.792v11.978h-14.753V52.934z M134.462,74.559c3.783,0,6.304-1.702,6.304-4.854v-0.126c0-3.215-2.333-4.854-6.241-4.854h-4.035
		v9.835H134.462z"/>
	<path fill="#FFFFFF" d="M169.769,65.417h-12.988V52.934h40.728v12.483h-12.988v31.648h-14.752V65.417z"/>
	<path fill="#FFFFFF" d="M200.473,77.27V52.934h15.004V77.08c0,5.485,2.837,7.818,6.809,7.818s6.809-2.144,6.809-7.503V52.934H244.1
		v24.021c0,15.067-8.763,20.994-21.938,20.994C208.984,97.948,200.473,91.896,200.473,77.27z"/>
	<path fill="#FFFFFF" d="M248.767,52.934h21.562c7.817,0,12.798,1.955,15.887,5.044c2.648,2.648,4.035,5.927,4.035,10.466v0.126
		c0,6.431-3.341,10.907-8.7,13.491l10.276,15.005h-16.833l-8.322-12.608h-3.152v12.608h-14.752V52.934z M269.886,73.929
		c3.531,0,5.675-1.577,5.675-4.287v-0.127c0-2.837-2.206-4.224-5.61-4.224h-6.432v8.638H269.886z"/>
	<path fill="#FFFFFF" d="M307.652,52.618h14.626l18.599,44.447h-16.014l-2.333-5.926h-15.445l-2.271,5.926h-15.761L307.652,52.618z
		 M318.874,80.674l-4.035-10.718l-4.035,10.718H318.874z"/>
	<path fill="#FFFFFF" d="M338.419,90.446l7.881-9.394c4.791,3.656,10.276,5.17,15.446,5.17c2.648,0,3.783-0.693,3.783-1.892v-0.126
		c0-1.262-1.388-1.955-6.116-2.9c-9.898-2.018-18.598-4.854-18.598-14.186v-0.126c0-8.385,6.557-14.879,18.725-14.879
		c8.511,0,14.815,2.018,19.922,6.053l-7.188,9.961c-4.16-3.026-9.142-4.35-13.239-4.35c-2.206,0-3.215,0.756-3.215,1.828v0.126
		c0,1.197,1.198,1.954,5.862,2.837c11.286,2.081,18.852,5.359,18.852,14.249v0.125c0,9.268-7.629,14.942-19.481,14.942
		C352.101,97.886,344.03,95.363,338.419,90.446z"/>
</g>
<g>
	<path fill="#FFFFFF" d="M0,0v150h400V0H0z M391.5,142.5H8.5V7.5h383V142.5z"/>
</g>
</svg>
